<?xml version="1.0" standalone="no"?>
<!DOCTYPE svg PUBLIC "-//W3C//DTD SVG 20010904//EN"
 "http://www.w3.org/TR/2001/REC-SVG-20010904/DTD/svg10.dtd">
<svg version="1.0" xmlns="http://www.w3.org/2000/svg"
 width="1024.000000pt" height="1024.000000pt" viewBox="0 0 1024.000000 1024.000000"
 preserveAspectRatio="xMidYMid meet">
<metadata>
Created by potrace 1.14, written by Peter Selinger 2001-2017
</metadata>
<g transform="translate(0.000000,1024.000000) scale(0.100000,-0.100000)"
fill="#000000" stroke="none">
<path d="M4835 7794 c-143 -19 -329 -60 -464 -100 -506 -154 -1008 -487 -1323
-879 -174 -217 -372 -568 -456 -810 -38 -109 -82 -258 -82 -277 0 -5 91 -8
203 -8 l202 0 39 115 c71 212 202 454 356 660 77 103 270 304 375 391 309 257
787 466 1173 512 l72 8 0 -1048 0 -1048 -1244 0 -1243 0 -7 -46 c-3 -26 -6
-123 -6 -215 l0 -169 1250 0 1250 0 0 -1074 0 -1074 -42 5 c-96 11 -306 57
-411 90 -506 160 -931 475 -1242 918 -104 149 -222 390 -282 576 l-48 149
-182 0 c-100 0 -188 3 -197 6 -30 12 -28 -26 8 -152 101 -352 285 -707 522
-1004 95 -119 310 -330 434 -426 596 -461 1358 -657 2076 -534 957 164 1774
850 2107 1771 37 101 97 308 97 333 0 3 -91 6 -203 6 l-203 0 -49 -147 c-217
-650 -731 -1189 -1380 -1446 -166 -66 -454 -137 -557 -137 l-38 0 0 1070 0
1070 1245 0 1245 0 0 193 c0 105 -3 202 -6 215 l-6 22 -1239 0 -1239 0 0 1046
0 1047 63 -6 c164 -15 399 -80 595 -163 327 -140 660 -386 884 -654 179 -214
378 -559 444 -770 l28 -90 198 0 198 0 0 24 c0 76 -107 361 -218 581 -128 254
-280 462 -487 671 -223 224 -433 377 -715 522 -304 157 -623 253 -940 281
-155 15 -432 12 -555 -5z"/>
</g>
</svg>
